<?xml version="1.0" encoding="UTF-8"?>
<svg version="1.1" xmlns="http://www.w3.org/2000/svg" width="1254" height="1254">
<path d="M0 0 C413.82 0 827.64 0 1254 0 C1254 413.82 1254 827.64 1254 1254 C840.18 1254 426.36 1254 0 1254 C0 840.18 0 426.36 0 0 Z " fill="#FAFAFA" opacity='0' transform="translate(0,0)"/>
<path d="M0 0 C57.09 0 114.18 0 173 0 C173 8.25 173 16.5 173 25 C189.17 25 205.34 25 222 25 C222 32.92 222 40.84 222 49 C235.86 49 249.72 49 264 49 C264 56.92 264 64.84 264 73 C271.26 73 278.52 73 286 73 C286 81.91 286 90.82 286 100 C294.58 100 303.16 100 312 100 C312 116.83 312 133.66 312 151 C320.91 151 329.82 151 339 151 C339 214.69 339 278.38 339 344 C376.62 344 414.24 344 453 344 C453 360.83 453 377.66 453 395 C445.41 395 437.82 395 430 395 C430 402.59 430 410.18 430 418 C400.96 418.33 371.92 418.66 342 419 C342 426.59 342 434.18 342 442 C329.37004197 442.02254916 316.7400972 442.040914 304.11012363 442.05181217 C298.24617836 442.05704146 292.38224751 442.06413994 286.51831055 442.07543945 C280.86438288 442.0862667 275.21046913 442.09227649 269.55653191 442.09487724 C267.3942639 442.09673179 265.23199669 442.10035295 263.06973457 442.10573006 C260.05241343 442.11293833 257.03515057 442.11399103 254.01782227 442.11352539 C253.1143959 442.11712067 252.21096954 442.12071594 251.28016663 442.12442017 C245.11405216 442.11405216 245.11405216 442.11405216 244 441 C243.9008343 439.37742456 243.86920223 437.75060169 243.8671875 436.125 C243.86589844 435.14015625 243.86460937 434.1553125 243.86328125 433.140625 C243.86714844 432.10421875 243.87101563 431.0678125 243.875 430 C243.87113281 428.96359375 243.86726562 427.9271875 243.86328125 426.859375 C243.86457031 425.87453125 243.86585938 424.8896875 243.8671875 423.875 C243.86887939 422.50988281 243.86887939 422.50988281 243.87060547 421.1171875 C244 419 244 419 245 418 C242.36 418 239.72 418 237 418 C237 418.33 237 418.66 237 419 C231.06 419 225.12 419 219 419 C219 426.26 219 433.52 219 441 C226.92 441 234.84 441 243 441 C243 450.24 243 459.48 243 469 C303.39 469 363.78 469 426 469 C426 485.83 426 502.66 426 520 C417.75 520 409.5 520 401 520 C401 529.24 401 538.48 401 548 C341.27 548 281.54 548 220 548 C220 556.58 220 565.16 220 574 C212.08 574 204.16 574 196 574 C196 586.21 196 598.42 196 611 C188.08 611 180.16 611 172 611 C172 618.92 172 626.84 172 635 C163.75 635 155.5 635 147 635 C147 635.99 147 636.98 147 638 C143.7 638 140.4 638 137 638 C137 645.59 137 653.18 137 661 C126.11 661 115.22 661 104 661 C104 669.58 104 678.16 104 687 C70.34 687 36.68 687 2 687 C2 679.41 2 671.82 2 664 C9.92 664 17.84 664 26 664 C26 657.73 26 651.46 26 645 C-4.36 645 -34.72 645 -66 645 C-66 651.6 -66 658.2 -66 665 C-78.21 665 -90.42 665 -103 665 C-103 671.6 -103 678.2 -103 685 C-139.63 685 -176.26 685 -214 685 C-214 668.17 -214 651.34 -214 634 C-205.42 634 -196.84 634 -188 634 C-188 617.5 -188 601 -188 584 C-226.28 584 -264.56 584 -304 584 C-304 576.41 -304 568.82 -304 561 C-311.92 561 -319.84 561 -328 561 C-328 543.84 -328 526.68 -328 509 C-311.83 509 -295.66 509 -279 509 C-279 502.73 -279 496.46 -279 490 C-274.2245558 489.20409263 -269.91203066 488.87767535 -265.125 488.9375 C-262.77375 488.958125 -260.4225 488.97875 -258 489 C-258 482.4 -258 475.8 -258 469 C-250.74 469 -243.48 469 -236 469 C-236 459.43 -236 449.86 -236 440 C-227.75 440 -219.5 440 -211 440 C-211 428.45 -211 416.9 -211 405 C-202.75 405 -194.5 405 -186 405 C-186 325.8 -186 246.6 -186 165 C-178.08 165 -170.16 165 -162 165 C-162 150.81 -162 136.62 -162 122 C-154.08 122 -146.16 122 -138 122 C-138 113.75 -138 105.5 -138 97 C-130.08 97 -122.16 97 -114 97 C-114 88.75 -114 80.5 -114 72 C-105.42 72 -96.84 72 -88 72 C-88 64.41 -88 56.82 -88 49 C-78.76 49 -69.52 49 -60 49 C-60 41.08 -60 33.16 -60 25 C-40.2 25 -20.4 25 0 25 C0 16.75 0 8.5 0 0 Z " fill="#D8D4B7" transform="translate(599,238)"/>
<path d="M0 0 C79.53 0 159.06 0 241 0 C241 7.59 241 15.18 241 23 C248.92 23 256.84 23 265 23 C265 31.91 265 40.82 265 50 C273.25 50 281.5 50 290 50 C290 94.88 290 139.76 290 186 C282.08 186 274.16 186 266 186 C266 195.24 266 204.48 266 214 C258.08 214 250.16 214 242 214 C242 221.26 242 228.52 242 236 C161.81 236 81.62 236 -1 236 C-1 228.74 -1 221.48 -1 214 C-8.92 214 -16.84 214 -25 214 C-25 204.76 -25 195.52 -25 186 C-32.92 186 -40.84 186 -49 186 C-49 141.12 -49 96.24 -49 50 C-41.08 50 -33.16 50 -25 50 C-25 41.09 -25 32.18 -25 23 C-16.75 23 -8.5 23 0 23 C0 15.41 0 7.82 0 0 Z " fill="#151A23" transform="translate(625,419)"/>
<path d="M0 0 C83.49 0 166.98 0 253 0 C253 9.24 253 18.48 253 28 C193.6 28 134.2 28 73 28 C73 36.58 73 45.16 73 54 C65.08 54 57.16 54 49 54 C49 66.21 49 78.42 49 91 C41.08 91 33.16 91 25 91 C25 98.92 25 106.84 25 115 C16.75 115 8.5 115 0 115 C0 115.99 0 116.98 0 118 C-3.3 118 -6.6 118 -10 118 C-10 125.59 -10 133.18 -10 141 C-20.89 141 -31.78 141 -43 141 C-43 149.58 -43 158.16 -43 167 C-76.66 167 -110.32 167 -145 167 C-145 159.41 -145 151.82 -145 144 C-137.08 144 -129.16 144 -121 144 C-121 137.73 -121 131.46 -121 125 C-151.36 125 -181.72 125 -213 125 C-213 131.6 -213 138.2 -213 145 C-225.21 145 -237.42 145 -250 145 C-250 151.6 -250 158.2 -250 165 C-286.63 165 -323.26 165 -361 165 C-361 148.17 -361 131.34 -361 114 C-352.42 114 -343.84 114 -335 114 C-335 97.5 -335 81 -335 64 C-351.17 64 -367.34 64 -384 64 C-384 52 -384 52 -383 51 C-381.21928754 50.91273777 -379.4351686 50.89300959 -377.65234375 50.90234375 C-376.57275391 50.90556641 -375.49316406 50.90878906 -374.38085938 50.91210938 C-372.67639648 50.92467773 -372.67639648 50.92467773 -370.9375 50.9375 C-369.22723633 50.94426758 -369.22723633 50.94426758 -367.48242188 50.95117188 C-364.65492582 50.9630024 -361.82745655 50.9809385 -359 51 C-359 47.37 -359 43.74 -359 40 C-343.16 40 -327.32 40 -311 40 C-310.67 56.5 -310.34 73 -310 90 C-302.41 90.33 -294.82 90.66 -287 91 C-287 98.59 -287 106.18 -287 114 C-262.91 114 -238.82 114 -214 114 C-214 106.08 -214 98.16 -214 90 C-167.14 90 -120.28 90 -72 90 C-72 82.41 -72 74.82 -72 67 C-63.42 67 -54.84 67 -46 67 C-46 61.72 -46 56.44 -46 51 C-39.07 51 -32.14 51 -25 51 C-25 43.41 -25 35.82 -25 28 C-16.75 28 -8.5 28 0 28 C0 18.76 0 9.52 0 0 Z " fill="#959480" transform="translate(746,758)"/>
<path d="M0 0 C23.43 0 46.86 0 71 0 C71 8.25 71 16.5 71 25 C63.08 25 55.16 25 47 25 C47 33.91 47 42.82 47 52 C39.08 52 31.16 52 23 52 C23 60.58 23 69.16 23 78 C8.81 78 -5.38 78 -20 78 C-20 87.57 -20 97.14 -20 107 C-36.17 107 -52.34 107 -69 107 C-69 97.43 -69 87.86 -69 78 C-61.08 78 -53.16 78 -45 78 C-45 69.09 -45 60.18 -45 51 C-37.08 51 -29.16 51 -21 51 C-21 42.42 -21 33.84 -21 25 C-14.07 25 -7.14 25 0 25 C0 16.75 0 8.5 0 0 Z " fill="#FBF1DB" transform="translate(553,310)"/>
<path d="M0 0 C17.16 0 34.32 0 52 0 C52 25.41 52 50.82 52 77 C34.84 77 17.68 77 0 77 C0 51.59 0 26.18 0 0 Z " fill="#D8D4B6" transform="translate(649,492)"/>
<path d="M0 0 C15.84 0 31.68 0 48 0 C48 25.41 48 50.82 48 77 C32.16 77 16.32 77 0 77 C0 51.59 0 26.18 0 0 Z " fill="#D8D5B7" transform="translate(818,492)"/>
<path d="M0 0 C7.59 0 15.18 0 23 0 C23 8.25 23 16.5 23 25 C42.47 25 61.94 25 82 25 C82 16.75 82 8.5 82 0 C91.24 0 100.48 0 110 0 C110 8.25 110 16.5 110 25 C102.41 25 94.82 25 87 25 C87 32.92 87 40.84 87 49 C58.29 49 29.58 49 0 49 C0 32.83 0 16.66 0 0 Z " fill="#92927F" transform="translate(941,607)"/>
<path d="M0 0 C24.09 0 48.18 0 73 0 C73 10.23 73 20.46 73 31 C48.91 31 24.82 31 0 31 C0 20.77 0 10.54 0 0 Z " fill="#D9D6B8" transform="translate(722,586)"/>
<path d="M0 0 C11.22 0 22.44 0 34 0 C34 0.33 34 0.66 34 1 C26.41 1.33 18.82 1.66 11 2 C11.03840242 8.39824574 11.03840242 8.39824574 11.09008789 14.79638672 C11.12485564 26.8933196 10.46617839 38.87936177 10 51 C70.06 51 130.12 51 192 51 C192 51.33 192 51.66 192 52 C131.61 52 71.22 52 9 52 C9 42.76 9 33.52 9 24 C1.08 24 -6.84 24 -15 24 C-15 16.74 -15 9.48 -15 2 C-10.05 1.67 -5.1 1.34 0 1 C0 0.67 0 0.34 0 0 Z " fill="#F9F9F8" transform="translate(833,655)"/>
<path d="M0 0 C7.26 0 14.52 0 22 0 C22 3.63 22 7.26 22 11 C28.93 11 35.86 11 43 11 C43 14.96 43 18.92 43 23 C28.81 23 14.62 23 0 23 C0 15.41 0 7.82 0 0 Z " fill="#A3A18C" transform="translate(296,799)"/>
<path d="M0 0 C7.59 0 15.18 0 23 0 C23 8.25 23 16.5 23 25 C42.47 25 61.94 25 82 25 C82 16.75 82 8.5 82 0 C82.33 0 82.66 0 83 0 C83 8.58 83 17.16 83 26 C55.61 26 28.22 26 0 26 C0 17.42 0 8.84 0 0 Z " fill="#B4B29A" transform="translate(941,607)"/>
<path d="M0 0 C1.13103149 0.00374634 1.13103149 0.00374634 2.28491211 0.00756836 C3.21311768 0.01667236 4.14132324 0.02577637 5.09765625 0.03515625 C9.58359375 0.06609375 9.58359375 0.06609375 14.16015625 0.09765625 C14.16015625 8.34765625 14.16015625 16.59765625 14.16015625 25.09765625 C5.58015625 25.09765625 -2.99984375 25.09765625 -11.83984375 25.09765625 C-11.83984375 17.17765625 -11.83984375 9.25765625 -11.83984375 1.09765625 C-3.96484375 -0.02734375 -3.96484375 -0.02734375 0 0 Z " fill="#9E9E89" transform="translate(1036.83984375,606.90234375)"/>
<path d="M0 0 C7.92 0 15.84 0 24 0 C24 8.25 24 16.5 24 25 C20.34657606 26.82671197 16.02160841 26.18470722 12 26.1875 C11.071875 26.19974609 10.14375 26.21199219 9.1875 26.22460938 C8.300625 26.22654297 7.41375 26.22847656 6.5 26.23046875 C5.27796875 26.23663208 5.27796875 26.23663208 4.03125 26.24291992 C2 26 2 26 0 24 C-0.22705078 21.56982422 -0.22705078 21.56982422 -0.1953125 18.5546875 C-0.19031738 17.58515137 -0.18532227 16.61561523 -0.18017578 15.61669922 C-0.16196777 14.38193848 -0.14375977 13.14717773 -0.125 11.875 C-0.08375 7.95625 -0.0425 4.0375 0 0 Z " fill="#E2DCBE" transform="translate(484,417)"/>
<path d="M0 0 C7.92 0 15.84 0 24 0 C24 7.92 24 15.84 24 24 C16.08 24 8.16 24 0 24 C0 16.08 0 8.16 0 0 Z " fill="#999883" transform="translate(1000,733)"/>
<path d="M0 0 C8.25 0 16.5 0 25 0 C25 7.59 25 15.18 25 23 C16.75 23 8.5 23 0 23 C0 15.41 0 7.82 0 0 Z " fill="#959480" transform="translate(915,656)"/>
<path d="M0 0 C30.36 0 60.72 0 92 0 C92 6.27 92 12.54 92 19 C84.08 19 76.16 19 68 19 C68 18.67 68 18.34 68 18 C69.65 17.67 71.3 17.34 73 17 C73.33 12.05 73.66 7.1 74 2 C49.91 1.67 25.82 1.34 1 1 C1 6.94 1 12.88 1 19 C0.67 19 0.34 19 0 19 C0 12.73 0 6.46 0 0 Z " fill="#F3F3F1" transform="translate(533,883)"/>
<path d="M0 0 C8.58 0 17.16 0 26 0 C26 8.58 26 17.16 26 26 C17.75 26 9.5 26 1 26 C1 35.24 1 44.48 1 54 C0.67 54 0.34 54 0 54 C0 44.76 0 35.52 0 26 C-83.49 26 -166.98 26 -253 26 C-253 25.67 -253 25.34 -253 25 C-169.51 25 -86.02 25 0 25 C0 16.75 0 8.5 0 0 Z M1 1 C1 8.92 1 16.84 1 25 C8.92 25 16.84 25 25 25 C25 17.08 25 9.16 25 1 C17.08 1 9.16 1 1 1 Z " fill="#BBB9A2" transform="translate(999,732)"/>
<path d="M0 0 C11.22 0 22.44 0 34 0 C34 0.33 34 0.66 34 1 C26.41 1.33 18.82 1.66 11 2 C11.03840242 8.39824574 11.03840242 8.39824574 11.09008789 14.79638672 C11.12485564 26.8933196 10.46617839 38.87936177 10 51 C70.06 51 130.12 51 192 51 C192 51.33 192 51.66 192 52 C131.61 52 71.22 52 9 52 C9 35.83 9 19.66 9 3 C1.41 3 -6.18 3 -14 3 C-14 9.27 -14 15.54 -14 22 C-14.33 22 -14.66 22 -15 22 C-15 15.4 -15 8.8 -15 2 C-10.05 1.67 -5.1 1.34 0 1 C0 0.67 0 0.34 0 0 Z " fill="#F0EFE8" transform="translate(833,655)"/>
<path d="M0 0 C3.81254623 -0.02682792 7.62490612 -0.04675477 11.4375 -0.0625 C12.52611328 -0.07087891 13.61472656 -0.07925781 14.73632812 -0.08789062 C15.77080078 -0.09111328 16.80527344 -0.09433594 17.87109375 -0.09765625 C18.82943115 -0.10289307 19.78776855 -0.10812988 20.77514648 -0.11352539 C23 0 23 0 24 1 C24.09823937 2.66429051 24.12973631 4.33281931 24.125 6 C24.12886719 7.36125 24.12886719 7.36125 24.1328125 8.75 C24 11 24 11 23 12 C21.29227642 12.08713831 19.58101351 12.10700007 17.87109375 12.09765625 C16.31938477 12.09282227 16.31938477 12.09282227 14.73632812 12.08789062 C13.64771484 12.07951172 12.55910156 12.07113281 11.4375 12.0625 C9.7987793 12.05573242 9.7987793 12.05573242 8.12695312 12.04882812 C5.41794568 12.0369984 2.7089662 12.01906231 0 12 C0 8.04 0 4.08 0 0 Z " fill="#CDC9AE" transform="translate(272,786)"/>
<path d="M0 0 C16.83 0 33.66 0 51 0 C51 25.08 51 50.16 51 76 C50.67 76 50.34 76 50 76 C50 51.58 50 27.16 50 2 C34.16 2 18.32 2 2 2 C2 5.96 2 9.92 2 14 C1.34 14.99 0.68 15.98 0 17 C0 11.39 0 5.78 0 0 Z " fill="#E9E4C4" transform="translate(649,492)"/>
<path d="M0 0 C11.22 0 22.44 0 34 0 C34 0.33 34 0.66 34 1 C26.41 1.33 18.82 1.66 11 2 C10.67 9.26 10.34 16.52 10 24 C9.67 24 9.34 24 9 24 C9 17.07 9 10.14 9 3 C1.41 3 -6.18 3 -14 3 C-14 9.27 -14 15.54 -14 22 C-14.33 22 -14.66 22 -15 22 C-15 15.4 -15 8.8 -15 2 C-10.05 1.67 -5.1 1.34 0 1 C0 0.67 0 0.34 0 0 Z " fill="#E7E4CE" transform="translate(833,655)"/>
<path d="M0 0 C0.33 0 0.66 0 1 0 C1 7.92 1 15.84 1 24 C-8.24 24 -17.48 24 -27 24 C-27 23.67 -27 23.34 -27 23 C-18.75 23 -10.5 23 -2 23 C-1.23085666 19.92342662 -0.83034891 17.55594843 -0.68359375 14.453125 C-0.64169922 13.60878906 -0.59980469 12.76445312 -0.55664062 11.89453125 C-0.51732422 11.02183594 -0.47800781 10.14914062 -0.4375 9.25 C-0.39431641 8.36183594 -0.35113281 7.47367187 -0.30664062 6.55859375 C-0.20086385 4.37254037 -0.09877454 2.18637911 0 0 Z " fill="#F2F1E9" transform="translate(538,263)"/>
<path d="M0 0 C2.31 0 4.62 0 7 0 C7 1.32 7 2.64 7 4 C2.71 4 -1.58 4 -6 4 C-6 3.67 -6 3.34 -6 3 C-5.195625 2.87625 -4.39125 2.7525 -3.5625 2.625 C-2.716875 2.41875 -1.87125 2.2125 -1 2 C-0.67 1.34 -0.34 0.68 0 0 Z " fill="#F0EFEC" transform="translate(356,703)"/>
</svg>
