<?xml version="1.0" standalone="no"?>
<!DOCTYPE svg PUBLIC "-//W3C//DTD SVG 20010904//EN"
 "http://www.w3.org/TR/2001/REC-SVG-20010904/DTD/svg10.dtd">
<svg version="1.0" xmlns="http://www.w3.org/2000/svg"
 width="1254.000000pt" height="1254.000000pt" viewBox="0 0 1254.000000 1254.000000"
 preserveAspectRatio="xMidYMid meet">

<g transform="translate(0.000000,1254.000000) scale(0.100000,-0.100000)"
fill="#000000" stroke="none">
<path d="M6250 8235 l0 -115 -125 0 -125 0 0 -135 0 -135 -120 0 -120 0 0
-680 0 -680 120 0 120 0 0 -140 0 -140 120 0 120 0 0 -110 0 -110 1213 2 1212
3 0 108 0 107 116 0 116 0 8 130 c4 71 4 134 0 140 -4 7 33 10 113 10 l120 0
7 103 c3 56 5 361 3 677 l-3 575 -117 3 -118 3 -1 42 c-1 23 0 84 1 135 l2 92
-126 0 -126 0 0 115 0 115 -1205 0 -1205 0 0 -115z m753 -797 c9 -230 9 -414
1 -511 l-7 -77 -253 0 -254 0 0 385 0 385 253 0 254 0 6 -182z m1657 -203 l0
-385 -240 0 -240 0 0 385 0 385 240 0 240 0 0 -385z m-710 -710 l0 -155 -365
0 -365 0 0 155 0 155 365 0 365 0 0 -155z"/>
</g>
</svg>
